<svg xmlns="http://www.w3.org/2000/svg" xmlns:xlink="http://www.w3.org/1999/xlink" width="454" zoomAndPan="magnify" viewBox="0 0 340.5 340.499998" height="454" preserveAspectRatio="xMidYMid meet" version="1.0"><defs><clipPath id="8311e71fb0"><path d="M 0.328125 0.046875 L 340 0.046875 L 340 340 L 0.328125 340 Z M 0.328125 0.046875 " clip-rule="nonzero"/></clipPath><clipPath id="b03444977e"><path d="M 142.613281 97.824219 L 204.113281 97.824219 L 204.113281 340 L 142.613281 340 Z M 142.613281 97.824219 " clip-rule="nonzero"/></clipPath></defs><g clip-path="url(#8311e71fb0)"><path fill="#000000" d="M 250.003906 310.691406 L 250.003906 293.933594 C 250.003906 286.535156 249.78125 279.140625 249.351562 271.761719 C 248.25 256.609375 247.691406 241.429688 247.691406 226.25 C 247.691406 211.675781 248.203125 197.105469 249.226562 182.566406 C 251.171875 154.875 253.238281 122.308594 252.976562 111.980469 C 252.933594 110.253906 251.359375 108.160156 247.792969 108.160156 C 243.09375 108.160156 240.402344 110.839844 239.070312 112.9375 C 234.367188 120.339844 218.269531 148.199219 218.269531 214.398438 C 218.265625 219.847656 224.878906 221.003906 227.332031 222.914062 C 228.976562 224.191406 230.488281 227.785156 230.316406 230.6875 L 227.921875 271.761719 C 227.488281 279.140625 227.273438 286.535156 227.273438 293.933594 L 227.273438 321.324219 C 226.761719 321.515625 226.253906 321.710938 225.738281 321.898438 C 212.132812 326.851562 197.878906 329.9375 183.359375 331.074219 L 183.359375 293.558594 C 183.359375 286.164062 183.144531 278.769531 182.710938 271.386719 L 179.058594 208.785156 C 178.820312 204.703125 179.734375 200.640625 181.703125 197.058594 C 181.703125 197.058594 190.867188 186.816406 191.433594 179.34375 C 192.5625 156.734375 188.171875 109.171875 185.964844 108.535156 L 183.992188 108.535156 C 181.324219 108.992188 186.296875 166.105469 181.820312 166.105469 L 180.429688 166.105469 C 176.699219 166.105469 180.238281 108.28125 177.246094 108.535156 L 175.125 108.535156 C 173.660156 108.535156 175.757812 166.105469 173.03125 166.105469 L 170.964844 166.105469 C 167.359375 166.105469 170.335938 108.535156 168.867188 108.535156 L 166.75 108.535156 C 163.757812 108.28125 167.296875 166.105469 163.5625 166.105469 L 162.175781 166.105469 C 157.695312 166.105469 162.664062 108.992188 160.003906 108.535156 L 158.023438 108.535156 C 155.820312 109.171875 151.433594 156.734375 152.5625 179.34375 C 152.90625 183.101562 155.332031 187.527344 157.679688 191.019531 C 160.023438 194.507812 162.289062 197.058594 162.289062 197.058594 C 164.257812 200.640625 165.175781 204.703125 164.9375 208.785156 L 161.277344 271.386719 C 160.847656 278.769531 160.632812 286.164062 160.632812 293.558594 L 160.632812 331.273438 C 145.816406 330.375 131.242188 327.453125 117.308594 322.574219 C 116.816406 322.402344 116.324219 322.21875 115.828125 322.042969 L 115.828125 293.664062 C 115.828125 286.265625 115.613281 278.871094 115.183594 271.492188 L 111.523438 216.964844 C 111.285156 212.882812 112.207031 208.820312 114.171875 205.238281 L 121.292969 195.046875 C 121.292969 195.046875 137.730469 175.6875 137.730469 157.605469 C 137.730469 130.445312 122.835938 108.425781 104.464844 108.425781 C 86.09375 108.425781 71.199219 130.445312 71.199219 157.605469 C 71.199219 175.6875 87.636719 195.046875 87.636719 195.046875 L 94.761719 205.238281 C 96.722656 208.820312 97.644531 212.882812 97.40625 216.964844 L 93.746094 271.492188 C 93.316406 278.871094 93.101562 286.265625 93.101562 293.664062 L 93.101562 311.785156 C 68.515625 298.292969 47.796875 278.582031 33.082031 254.648438 C 17.519531 229.335938 9.292969 200.167969 9.292969 170.296875 C 9.292969 127.21875 26.070312 86.714844 56.53125 56.253906 C 86.996094 25.792969 127.496094 9.015625 170.574219 9.015625 C 213.65625 9.015625 254.15625 25.792969 284.621094 56.253906 C 315.082031 86.714844 331.859375 127.21875 331.859375 170.296875 C 331.859375 228.476562 300.558594 282.042969 250.003906 310.691406 Z M 327.445312 104.027344 C 318.871094 83.753906 306.59375 65.546875 290.960938 49.914062 C 275.328125 34.28125 257.121094 22.003906 236.84375 13.429688 C 215.855469 4.550781 193.554688 0.0507812 170.574219 0.0507812 C 147.59375 0.0507812 125.296875 4.550781 104.304688 13.429688 C 84.03125 22.003906 65.824219 34.28125 50.191406 49.914062 C 34.558594 65.546875 22.28125 83.753906 13.707031 104.027344 C 4.828125 125.019531 0.328125 147.316406 0.328125 170.296875 C 0.328125 201.828125 9.011719 232.621094 25.441406 259.34375 C 41.414062 285.320312 64.085938 306.585938 91.003906 320.84375 C 98.511719 324.820312 106.367188 328.25 114.347656 331.039062 C 129.148438 336.21875 144.628906 339.316406 160.367188 340.242188 C 163.722656 340.441406 167.15625 340.542969 170.574219 340.542969 C 174.929688 340.542969 179.347656 340.375 183.703125 340.042969 C 199.152344 338.867188 214.328125 335.597656 228.808594 330.324219 C 236.820312 327.410156 244.675781 323.855469 252.152344 319.761719 C 306.847656 289.851562 340.828125 232.578125 340.828125 170.296875 C 340.828125 147.316406 336.324219 125.019531 327.445312 104.027344 " fill-opacity="1" fill-rule="nonzero"/></g><g clip-path="url(#b03444977e)"><path fill="#4dff00" d="M 250.003906 310.691406 L 250.003906 293.933594 C 250.003906 286.535156 249.78125 279.140625 249.351562 271.761719 C 248.25 256.609375 247.691406 241.429688 247.691406 226.25 C 247.691406 211.675781 248.203125 197.105469 249.226562 182.566406 C 251.171875 154.875 253.238281 122.308594 252.976562 111.980469 C 252.933594 110.253906 251.359375 108.160156 247.792969 108.160156 C 243.09375 108.160156 240.402344 110.839844 239.070312 112.9375 C 234.367188 120.339844 218.269531 148.199219 218.269531 214.398438 C 218.265625 219.847656 224.878906 221.003906 227.332031 222.914062 C 228.976562 224.191406 230.488281 227.785156 230.316406 230.6875 L 227.921875 271.761719 C 227.488281 279.140625 227.273438 286.535156 227.273438 293.933594 L 227.273438 321.324219 C 226.761719 321.515625 226.253906 321.710938 225.738281 321.898438 C 212.132812 326.851562 197.878906 329.9375 183.359375 331.074219 L 183.359375 293.558594 C 183.359375 286.164062 183.144531 278.769531 182.710938 271.386719 L 179.058594 208.785156 C 178.820312 204.703125 179.734375 200.640625 181.703125 197.058594 C 181.703125 197.058594 190.867188 186.816406 191.433594 179.34375 C 192.5625 156.734375 188.171875 109.171875 185.964844 108.535156 L 183.992188 108.535156 C 181.324219 108.992188 186.296875 166.105469 181.820312 166.105469 L 180.429688 166.105469 C 176.699219 166.105469 180.238281 108.28125 177.246094 108.535156 L 175.125 108.535156 C 173.660156 108.535156 175.757812 166.105469 173.03125 166.105469 L 170.964844 166.105469 C 167.359375 166.105469 170.335938 108.535156 168.867188 108.535156 L 166.75 108.535156 C 163.757812 108.28125 167.296875 166.105469 163.5625 166.105469 L 162.175781 166.105469 C 157.695312 166.105469 162.664062 108.992188 160.003906 108.535156 L 158.023438 108.535156 C 155.820312 109.171875 151.433594 156.734375 152.5625 179.34375 C 152.90625 183.101562 155.332031 187.527344 157.679688 191.019531 C 160.023438 194.507812 162.289062 197.058594 162.289062 197.058594 C 164.257812 200.640625 165.175781 204.703125 164.9375 208.785156 L 161.277344 271.386719 C 160.847656 278.769531 160.632812 286.164062 160.632812 293.558594 L 160.632812 331.273438 C 145.816406 330.375 131.242188 327.453125 117.308594 322.574219 C 116.816406 322.402344 116.324219 322.21875 115.828125 322.042969 L 115.828125 293.664062 C 115.828125 286.265625 115.613281 278.871094 115.183594 271.492188 L 111.523438 216.964844 C 111.285156 212.882812 112.207031 208.820312 114.171875 205.238281 L 121.292969 195.046875 C 121.292969 195.046875 137.730469 175.6875 137.730469 157.605469 C 137.730469 130.445312 122.835938 108.425781 104.464844 108.425781 C 86.09375 108.425781 71.199219 130.445312 71.199219 157.605469 C 71.199219 175.6875 87.636719 195.046875 87.636719 195.046875 L 94.761719 205.238281 C 96.722656 208.820312 97.644531 212.882812 97.40625 216.964844 L 93.746094 271.492188 C 93.316406 278.871094 93.101562 286.265625 93.101562 293.664062 L 93.101562 311.785156 C 68.515625 298.292969 47.796875 278.582031 33.082031 254.648438 C 17.519531 229.335938 9.292969 200.167969 9.292969 170.296875 C 9.292969 127.21875 26.070312 86.714844 56.53125 56.253906 C 86.996094 25.792969 127.496094 9.015625 170.574219 9.015625 C 213.65625 9.015625 254.15625 25.792969 284.621094 56.253906 C 315.082031 86.714844 331.859375 127.21875 331.859375 170.296875 C 331.859375 228.476562 300.558594 282.042969 250.003906 310.691406 Z M 327.445312 104.027344 C 318.871094 83.753906 306.59375 65.546875 290.960938 49.914062 C 275.328125 34.28125 257.121094 22.003906 236.84375 13.429688 C 215.855469 4.550781 193.554688 0.0507812 170.574219 0.0507812 C 147.59375 0.0507812 125.296875 4.550781 104.304688 13.429688 C 84.03125 22.003906 65.824219 34.28125 50.191406 49.914062 C 34.558594 65.546875 22.28125 83.753906 13.707031 104.027344 C 4.828125 125.019531 0.328125 147.316406 0.328125 170.296875 C 0.328125 201.828125 9.011719 232.621094 25.441406 259.34375 C 41.414062 285.320312 64.085938 306.585938 91.003906 320.84375 C 98.511719 324.820312 106.367188 328.25 114.347656 331.039062 C 129.148438 336.21875 144.628906 339.316406 160.367188 340.242188 C 163.722656 340.441406 167.15625 340.542969 170.574219 340.542969 C 174.929688 340.542969 179.347656 340.375 183.703125 340.042969 C 199.152344 338.867188 214.328125 335.597656 228.808594 330.324219 C 236.820312 327.410156 244.675781 323.855469 252.152344 319.761719 C 306.847656 289.851562 340.828125 232.578125 340.828125 170.296875 C 340.828125 147.316406 336.324219 125.019531 327.445312 104.027344 " fill-opacity="1" fill-rule="nonzero"/></g></svg>